<?xml version="1.0" standalone="no"?>
<!DOCTYPE svg PUBLIC "-//W3C//DTD SVG 20010904//EN"
 "http://www.w3.org/TR/2001/REC-SVG-20010904/DTD/svg10.dtd">
<svg version="1.0" xmlns="http://www.w3.org/2000/svg"
 width="700.000000pt" height="700.000000pt" viewBox="0 0 700.000000 700.000000"
 preserveAspectRatio="xMidYMid meet">
<metadata>
Created by potrace 1.11, written by Peter Selinger 2001-2013
</metadata>
<g transform="translate(0.000000,700.000000) scale(0.100000,-0.100000)"
fill="#000000" stroke="none">
<path d="M0 4261 l0 -2738 158 -3 c268 -6 483 0 577 15 97 15 190 19 440 16
88 -1 185 0 215 4 102 11 245 37 280 50 47 18 74 24 215 45 66 10 156 28 200
40 160 42 230 52 400 55 143 3 159 2 100 -6 -102 -15 -117 -18 -110 -29 3 -6
19 -10 35 -10 16 0 35 -7 43 -15 23 -23 62 -28 76 -11 8 9 23 16 36 16 21 0
22 -3 20 -92 -2 -51 1 -97 5 -103 5 -5 13 -34 18 -63 9 -52 9 -54 -17 -63 -52
-19 -72 -33 -78 -57 -4 -19 -11 -23 -29 -19 -13 2 -24 1 -24 -4 0 -4 -10 -9
-22 -11 -15 -2 -23 -10 -23 -23 0 -16 -8 -21 -42 -23 -42 -3 -58 -14 -65 -42
-3 -15 -61 -50 -82 -50 -14 0 6 19 35 34 46 23 34 36 -34 36 -76 0 -99 -16
-67 -45 27 -24 25 -29 -12 -43 -31 -11 -31 -12 -13 -33 11 -11 15 -20 10 -19
-20 4 -35 0 -35 -10 0 -5 7 -10 15 -10 8 0 15 -4 15 -10 0 -14 -11 -12 -34 5
-25 19 -147 20 -164 3 -8 -8 -35 -12 -76 -10 -40 2 -66 -1 -71 -7 -4 -7 -20
-9 -40 -5 -31 5 -38 2 -78 -40 -41 -44 -46 -46 -108 -51 -35 -2 -78 -9 -94
-15 -17 -7 -52 -15 -80 -20 -27 -4 -58 -11 -69 -15 -14 -6 -17 -4 -14 11 2 14
12 19 38 19 19 0 46 8 60 18 13 9 32 17 41 17 10 0 26 11 37 25 13 16 26 23
36 19 20 -8 21 6 2 32 -12 16 -27 19 -90 19 -53 0 -75 3 -72 12 7 16 -36 24
-48 9 -17 -21 -70 -27 -94 -10 -20 14 -26 13 -68 -6 -26 -11 -53 -28 -60 -38
-7 -9 -16 -13 -20 -9 -5 4 -2 12 6 17 8 5 11 12 8 15 -4 4 -16 1 -27 -7 -12
-8 -18 -18 -14 -21 3 -4 -11 -6 -33 -6 -21 1 -29 4 -18 6 12 2 32 15 45 29 12
13 30 24 40 24 25 0 32 28 9 40 -31 16 -108 15 -128 -2 -30 -27 -65 -41 -105
-43 -47 -3 -65 -18 -47 -40 10 -12 10 -15 -4 -15 -10 0 -14 5 -11 10 3 6 -3
10 -15 10 -12 0 -19 4 -16 9 7 11 -28 21 -76 21 -32 0 -37 -3 -35 -22 1 -13
10 -35 20 -50 24 -35 10 -63 -35 -72 -78 -16 -98 -18 -98 -8 0 5 20 13 45 16
51 8 56 20 20 48 -29 22 -32 50 -9 69 14 11 13 14 -10 26 -26 14 -33 28 -18
37 4 2 26 -1 49 -7 33 -8 61 -7 143 8 55 10 103 22 106 27 3 4 17 8 32 8 34 1
63 22 53 38 -4 7 -24 22 -44 32 -46 25 -185 27 -270 5 -32 -8 -67 -15 -77 -15
-16 0 -20 -7 -20 -31 0 -24 -4 -30 -17 -27 -12 3 -17 12 -16 30 2 31 -5 33
-133 43 -76 6 -83 5 -109 -17 -34 -29 -27 -48 18 -48 36 -1 105 -15 114 -24
16 -16 -13 -17 -87 -6 -53 8 -83 18 -89 29 -11 19 -161 33 -203 19 -21 -8 -31
-6 -44 7 -9 9 -19 13 -22 10 -4 -3 0 -10 7 -15 8 -4 11 -15 8 -24 -5 -11 -14
-14 -36 -10 l-30 6 -1 -566 -1 -566 3501 0 3500 0 0 1724 0 1725 -25 20 c-20
15 -37 19 -70 15 -33 -3 -54 2 -77 16 -41 25 -48 25 -48 0 0 -25 -17 -27 -22
-2 -2 12 -14 17 -43 19 -71 3 -102 14 -114 40 -9 20 -14 23 -25 14 -10 -9 -15
-8 -20 4 -3 8 -12 15 -21 15 -9 0 -26 9 -38 21 -19 18 -30 20 -79 14 -51 -5
-58 -4 -68 15 -6 11 -17 20 -26 20 -13 0 -34 37 -34 61 0 17 19 9 25 -12 5
-15 10 -17 20 -9 14 12 38 89 33 109 -2 7 2 15 9 18 8 3 10 -6 6 -30 -5 -34
-4 -35 33 -39 44 -5 90 14 99 41 5 18 7 18 55 0 61 -23 70 -23 70 -4 0 8 4 15
10 15 10 0 77 -36 96 -51 6 -5 14 -5 18 -1 10 10 86 9 86 -1 0 -5 6 -14 13
-22 16 -15 112 -65 127 -65 6 0 10 542 10 1665 l0 1665 -3500 0 -3500 0 0
-2739z m6045 1704 c-5 -2 -37 -9 -70 -16 l-60 -12 33 -14 c19 -8 43 -11 55 -7
28 9 33 7 29 -14 -8 -51 -15 -63 -42 -77 -23 -12 -30 -22 -30 -44 0 -16 -6
-33 -12 -39 -23 -18 -85 -35 -103 -28 -15 5 -15 9 -4 23 10 12 10 14 2 9 -8
-4 -13 -2 -13 7 0 8 7 18 16 21 8 3 12 11 8 18 -5 7 0 9 14 6 22 -6 52 26 52
57 0 8 6 15 13 15 8 0 14 7 14 16 0 11 -7 14 -24 9 -32 -8 -47 3 -32 21 10 12
9 13 -7 7 -10 -3 -22 -11 -25 -16 -4 -5 -15 -5 -27 2 -29 15 -42 14 -36 -4 8
-19 -48 -69 -92 -83 -47 -14 -53 3 -9 29 46 28 38 36 -15 15 -22 -9 -49 -16
-60 -16 -29 0 -25 -19 6 -31 26 -9 26 -10 8 -24 -10 -8 -24 -15 -30 -15 -6 0
-22 -9 -35 -21 l-24 -21 -9 31 c-7 23 -15 31 -32 31 -13 0 -24 -3 -24 -8 0 -4
-18 -15 -40 -25 -47 -20 -55 -33 -41 -68 9 -21 10 -22 12 -4 1 11 1 26 0 33
-1 6 3 12 10 12 6 0 17 7 24 17 14 18 35 10 35 -14 0 -9 8 -21 17 -28 15 -11
15 -15 3 -30 -8 -10 -14 -27 -15 -38 0 -26 -60 -45 -87 -28 -22 14 -38 14 -38
1 0 -5 7 -10 16 -10 8 0 12 -4 9 -10 -3 -5 -19 -10 -34 -10 -16 0 -34 -7 -41
-15 -7 -8 -20 -15 -30 -15 -21 0 -100 -76 -100 -96 0 -8 8 -18 18 -21 9 -4 24
-16 32 -26 13 -15 34 -20 103 -24 72 -5 90 -9 98 -24 7 -15 5 -24 -11 -41 -15
-16 -17 -24 -8 -29 25 -13 116 -19 141 -10 18 7 44 6 79 -1 62 -13 108 -5 115
21 5 21 45 17 75 -8 23 -19 23 -31 1 -31 -12 0 -14 -3 -6 -11 8 -8 17 -5 32
10 25 25 68 27 126 6 22 -8 61 -15 86 -15 38 0 48 -4 52 -20 3 -14 10 -18 22
-14 10 4 22 -1 30 -12 15 -19 15 -19 29 0 11 13 22 17 39 12 23 -5 23 -8 16
-53 -12 -72 -11 -93 5 -93 9 0 12 7 9 19 -5 22 23 37 42 21 9 -7 23 -2 50 20
42 33 44 34 65 20 12 -8 12 -10 -3 -16 -23 -8 -22 -20 3 -27 21 -5 40 17 40
46 0 8 14 29 30 47 l30 32 0 -28 c0 -15 -11 -46 -25 -70 -15 -26 -21 -45 -15
-49 17 -11 11 -37 -10 -42 -15 -4 -18 -11 -14 -29 5 -21 3 -24 -22 -24 -32 0
-56 -12 -55 -26 1 -12 -29 -11 -30 1 -1 6 7 15 17 20 25 13 29 41 10 70 -15
22 -16 23 -58 8 -54 -18 -53 -17 -34 -45 14 -21 14 -27 2 -44 -11 -15 -17 -16
-27 -7 -9 9 -15 8 -27 -3 -8 -8 -20 -13 -28 -10 -17 6 -24 -14 -12 -37 5 -9 6
-22 2 -28 -6 -10 23 -78 38 -90 5 -3 9 -18 10 -35 1 -16 6 -32 11 -35 11 -8
19 -154 11 -192 -4 -17 -15 -32 -30 -37 -13 -5 -24 -16 -24 -25 0 -8 -11 -17
-25 -21 -20 -5 -25 -12 -25 -40 0 -22 -7 -38 -21 -48 -19 -13 -20 -18 -10 -47
14 -42 14 -49 -4 -49 -8 0 -19 -16 -25 -40 -9 -33 -15 -40 -36 -40 -23 0 -25
-3 -19 -29 7 -32 -4 -45 -30 -35 -14 6 -14 8 2 26 14 16 15 21 4 28 -24 14
-37 1 -38 -37 -1 -23 -8 -42 -19 -50 -17 -13 -17 -14 4 -28 12 -9 19 -22 16
-30 -4 -8 -1 -15 5 -15 6 0 11 -4 11 -10 0 -5 -9 -10 -20 -10 -11 0 -20 -4
-20 -8 0 -16 58 -64 69 -57 6 3 14 -1 17 -9 3 -9 12 -16 20 -16 26 0 14 -18
-17 -25 -22 -5 -36 -2 -49 10 -10 9 -24 14 -30 10 -6 -4 -19 -3 -28 1 -18 7
-31 10 -74 12 -18 1 -28 8 -28 18 0 12 6 15 24 10 22 -5 24 -4 17 21 -10 37
-29 40 -41 8 -9 -23 -15 -27 -42 -23 -24 4 -32 1 -36 -14 -4 -18 -7 -19 -119
-22 -17 -1 -29 2 -26 7 2 4 -17 7 -42 7 -49 0 -105 -22 -106 -43 -7 -121 -7
-127 7 -127 25 0 15 -16 -18 -31 -29 -12 -33 -19 -36 -56 -3 -39 11 -60 20
-31 3 7 7 6 11 -5 3 -9 2 -17 -3 -17 -36 0 21 -38 94 -63 l39 -13 -31 -13
c-38 -16 -42 -45 -10 -72 11 -11 25 -19 30 -19 4 0 8 -11 8 -25 0 -23 4 -25
43 -25 26 -1 50 -8 65 -20 28 -23 20 -44 -14 -37 -18 3 -24 0 -24 -14 0 -22
14 -24 59 -8 35 12 56 3 28 -12 -16 -10 -16 -12 3 -39 20 -28 21 -29 56 -14
32 13 38 13 60 -1 26 -16 30 -30 14 -40 -18 -11 -10 -25 15 -25 13 0 40 -8 60
-17 31 -15 37 -15 45 -3 9 13 10 13 11 0 1 -8 1 -20 0 -26 -1 -7 5 -14 14 -18
8 -3 15 -14 15 -25 0 -18 -3 -19 -25 -9 -14 6 -25 20 -25 31 0 17 -5 18 -35
13 -24 -5 -35 -3 -35 5 0 20 -31 35 -61 31 -35 -5 -36 -9 -4 -46 26 -31 31
-46 15 -46 -5 0 -10 -9 -10 -21 0 -18 -2 -18 -24 8 -21 24 -26 25 -31 12 -4
-12 7 -29 35 -56 36 -35 39 -42 26 -53 -9 -7 -13 -16 -10 -21 8 -13 -10 -11
-24 3 -9 9 -12 8 -12 -5 0 -9 -5 -27 -11 -41 -10 -21 -15 -23 -37 -15 -36 14
-66 4 -86 -26 -18 -28 -18 -28 42 -25 27 1 42 -3 42 -11 0 -8 14 -10 44 -7 38
5 45 3 50 -15 3 -11 -2 -29 -10 -41 -20 -29 -18 -46 6 -46 13 0 20 -7 20 -19
0 -13 -12 -22 -45 -31 -25 -7 -57 -22 -70 -32 -30 -23 -44 -17 -37 17 3 21 0
25 -18 25 -19 0 -21 -4 -15 -31 6 -24 4 -30 -6 -26 -8 2 -13 8 -12 13 10 59
10 59 -29 57 -28 -2 -38 2 -38 12 0 23 -31 18 -37 -6 -6 -20 -11 -21 -67 -16
-74 7 -97 -3 -78 -33 15 -24 16 -62 1 -77 -18 -18 8 -56 34 -49 25 6 47 -10
47 -35 0 -22 37 -49 67 -49 17 0 23 -6 24 -22 l0 -23 11 23 c6 12 19 22 30 22
12 0 18 7 18 21 0 19 4 21 35 16 26 -4 35 -2 35 9 0 18 9 18 31 -2 16 -14 20
-14 49 3 18 10 43 24 55 30 32 18 45 36 47 66 3 30 40 51 81 45 13 -1 30 2 38
8 9 7 35 9 74 4 54 -6 63 -5 88 17 26 21 41 27 60 24 4 0 7 4 7 9 0 16 27 11
34 -6 7 -19 -1 -34 -19 -34 -8 0 -17 -4 -20 -10 -4 -6 10 -10 34 -10 29 0 41
4 41 15 0 23 35 37 65 25 17 -7 32 -7 43 0 9 5 13 10 8 10 -12 0 24 40 36 40
5 0 6 -4 3 -10 -8 -13 18 -13 32 1 13 13 53 -51 53 -87 0 -13 4 -24 9 -24 21
0 22 -41 2 -74 -22 -35 -27 -72 -11 -78 19 -6 -8 -29 -41 -35 -19 -2 -41 -11
-50 -19 -8 -8 -30 -14 -47 -14 -20 0 -43 -10 -64 -29 -41 -35 -71 -51 -95 -51
-11 0 -38 -12 -61 -27 -32 -21 -39 -30 -30 -40 6 -8 8 -16 4 -20 -11 -11 -79
-33 -103 -33 -12 0 -52 -13 -88 -30 -36 -16 -69 -30 -74 -30 -5 0 -14 -6 -21
-14 -6 -8 -28 -16 -47 -18 -20 -2 -39 -9 -41 -17 -4 -11 5 -13 44 -7 26 3 50
10 53 15 8 12 260 19 264 8 1 -5 18 -8 37 -8 104 4 346 -6 360 -14 10 -6 9
-11 -6 -22 -10 -8 -19 -19 -19 -26 -1 -7 -7 -10 -15 -9 -63 15 -143 21 -167
11 -41 -15 -346 -20 -356 -6 -6 8 -7 5 -3 -5 3 -10 1 -18 -5 -18 -6 0 -30 -13
-54 -29 -23 -15 -55 -31 -71 -34 -16 -3 -59 -11 -96 -18 -38 -7 -68 -17 -68
-21 0 -13 -28 -9 -33 5 -3 9 -7 9 -17 0 -7 -6 -10 -18 -7 -27 8 -19 97 -13
113 9 6 8 39 22 74 31 51 13 71 14 104 4 56 -15 123 -15 171 -1 22 7 49 12 60
12 11 0 33 4 48 11 22 8 34 8 53 -3 25 -13 70 -4 163 32 23 10 61 4 61 -9 -1
-28 -76 -50 -148 -43 -22 2 -34 -2 -38 -13 -7 -18 -31 -21 -36 -5 -2 6 -14 8
-31 4 -44 -12 -24 -20 56 -24 48 -2 29 -21 -22 -21 -28 0 -53 -5 -57 -11 -4
-8 3 -9 22 -5 16 3 42 -1 59 -9 17 -7 23 -14 15 -15 -10 0 -6 -6 10 -14 24
-14 24 -14 -30 -40 -29 -14 -63 -26 -74 -26 -17 1 -15 3 9 14 17 7 38 22 48
34 18 20 18 20 -10 26 -15 4 -57 2 -93 -3 -36 -5 -68 -7 -72 -4 -5 2 -8 0 -8
-6 0 -6 -8 -7 -21 -3 -30 12 -147 -5 -177 -24 -24 -16 -25 -17 -7 -30 24 -18
39 -17 90 0 93 32 127 40 133 29 4 -5 20 -13 35 -17 43 -10 22 -26 -34 -24
-38 0 -55 -4 -73 -21 -29 -27 -89 -33 -157 -15 -56 15 -94 10 -121 -14 -15
-13 -18 -13 -18 -1 0 19 -43 46 -48 30 -2 -6 -10 -11 -17 -11 -7 0 -15 -4 -17
-9 -1 -5 -30 -13 -63 -16 -33 -4 -63 -9 -67 -11 -8 -5 -41 25 -55 50 -16 28
-78 28 -108 0 -29 -27 -45 -31 -45 -11 0 14 57 64 96 85 23 12 65 5 76 -12 5
-7 17 -5 38 7 28 17 84 26 168 27 22 0 32 5 32 15 0 12 -20 15 -116 15 -116 0
-116 0 -93 19 13 10 35 22 49 26 14 4 44 28 68 52 40 43 51 68 33 75 -10 4
-81 137 -81 152 0 6 -15 33 -33 61 -19 27 -48 74 -66 102 -28 45 -37 52 -56
47 -19 -5 -28 1 -47 29 -13 19 -51 72 -86 116 -81 105 -142 200 -142 221 0 9
-11 27 -25 40 -28 26 -33 42 -10 34 24 -10 17 13 -11 40 -27 24 -26 46 2 46 9
0 22 7 30 15 14 13 12 15 -15 15 -16 0 -33 5 -36 10 -11 17 -38 12 -31 -6 4
-12 2 -15 -9 -10 -8 3 -15 0 -15 -7 -1 -21 -31 42 -35 73 -3 28 -1 30 31 32
77 4 79 4 79 -17 0 -19 27 -32 70 -34 17 -1 17 1 5 9 -13 9 -13 11 0 21 12 9
11 10 -7 6 -15 -3 -20 -1 -16 9 3 8 1 14 -5 14 -6 0 -12 -6 -15 -12 -2 -7 -8
-9 -13 -5 -4 4 -3 16 3 26 6 10 15 35 19 56 4 21 14 39 23 42 52 16 59 21 54
47 -3 14 -11 26 -18 26 -17 0 -40 29 -30 38 4 4 10 1 12 -5 5 -15 53 -18 53
-3 0 19 38 10 43 -10 5 -18 7 -19 35 -5 36 18 48 56 30 96 -13 28 -28 39 -28
19 0 -5 -7 -10 -15 -10 -8 0 -15 5 -15 10 0 6 -7 10 -16 10 -9 0 -12 -5 -8
-12 4 -7 3 -8 -4 -4 -6 4 -30 2 -52 -4 -53 -14 -68 -5 -39 26 17 18 19 24 8
24 -9 0 -25 13 -37 29 -15 21 -27 28 -42 24 -14 -4 -20 0 -20 10 0 17 26 47
41 47 6 0 7 5 3 11 -4 8 -9 7 -15 -2 -7 -12 -9 -12 -9 0 0 8 8 20 18 27 9 8
12 14 5 14 -15 0 -103 59 -103 68 0 4 4 13 9 21 13 21 -11 41 -40 34 -13 -3
-35 -16 -49 -28 -14 -12 -45 -32 -70 -43 -46 -22 -75 -49 -97 -91 -17 -31 -16
-34 6 -22 34 19 43 -17 12 -48 -10 -10 -22 -36 -25 -58 -5 -26 -14 -42 -29
-48 -14 -6 -22 -20 -23 -35 -1 -14 -2 -37 -3 -52 -1 -29 -25 -39 -34 -15 -3 6
-6 -6 -6 -28 0 -43 28 -99 30 -59 1 16 2 17 6 2 5 -20 23 -25 23 -7 0 7 11 8
29 4 24 -5 32 -2 41 15 8 15 18 20 31 17 11 -3 16 -1 13 4 -3 6 0 16 6 24 18
22 44 -8 37 -42 -5 -29 10 -93 23 -93 4 0 18 -21 31 -47 13 -27 30 -53 38 -60
13 -9 13 -14 4 -24 -16 -16 -46 20 -70 85 -16 43 -61 96 -83 96 -12 0 -20 -29
-10 -35 22 -14 7 -25 -31 -25 -35 0 -41 -3 -36 -17 13 -48 13 -48 -35 -51 -43
-3 -48 -6 -48 -27 0 -27 -35 -50 -155 -99 -31 -14 -34 -18 -29 -45 l7 -31 -50
0 c-37 0 -55 5 -67 19 -10 11 -35 22 -56 26 -44 7 -50 14 -69 70 -30 87 -63
104 -143 70 -31 -12 -38 -12 -58 2 -22 15 -24 14 -56 -23 -18 -21 -33 -42 -34
-46 0 -12 -20 -9 -20 3 0 6 12 26 26 45 l27 34 -21 113 c-41 216 -46 263 -45
462 0 209 11 335 44 495 21 102 96 368 109 385 4 6 13 28 20 50 38 120 245
484 332 581 19 21 41 48 49 60 44 65 221 241 340 339 155 127 393 271 569 345
144 60 366 131 460 146 52 8 97 17 99 20 2 2 25 4 50 3 25 0 42 -2 36 -4z
m-227 -151 c30 -9 28 -17 -10 -32 -24 -9 -35 -9 -46 0 -12 10 -11 14 4 25 20
15 21 15 52 7z m10 -113 c7 -1 10 -5 7 -11 -8 -13 -85 -8 -85 6 0 7 13 11 33
9 17 -2 38 -3 45 -4z m760 -356 c-3 -3 -9 2 -12 12 -6 14 -5 15 5 6 7 -7 10
-15 7 -18z m-438 -91 c0 -8 -5 -12 -10 -9 -6 4 -8 11 -5 16 9 14 15 11 15 -7z
m540 -61 c0 -13 -8 -28 -19 -34 -11 -7 -16 -19 -13 -31 2 -10 -1 -18 -9 -18
-7 0 -10 -3 -7 -6 3 -3 15 0 26 7 16 10 23 9 43 -9 12 -12 28 -22 35 -22 15 0
26 54 18 88 -11 44 16 11 27 -34 23 -88 23 -84 -4 -84 -16 0 -26 -7 -30 -20
-7 -27 -25 -25 -37 3 -5 12 -9 18 -9 13 -1 -5 -10 -1 -21 9 -16 15 -22 15 -35
5 -10 -8 -29 -10 -54 -6 -23 3 -42 2 -46 -4 -13 -22 -25 -8 -25 29 0 32 6 44
33 67 27 23 32 25 35 10 3 -11 11 -16 25 -14 16 2 23 12 27 38 8 49 20 67 31
49 5 -8 9 -24 9 -36z m-65 -184 c10 -14 1 -21 -19 -13 -9 3 -13 10 -10 15 7
12 21 11 29 -2z m-65 -24 c0 -9 -9 -15 -21 -15 -18 0 -19 2 -9 15 7 8 16 15
21 15 5 0 9 -7 9 -15z m87 -22 c3 -7 -4 -9 -16 -6 -12 3 -18 9 -15 15 7 11 26
6 31 -9z m-307 -459 c0 -10 -7 -14 -22 -12 -32 5 -35 28 -4 28 17 0 26 -5 26
-16z m140 -114 c0 -5 -4 -10 -10 -10 -5 0 -10 5 -10 10 0 6 5 10 10 10 6 0 10
-4 10 -10z m470 -95 c0 -8 -10 -23 -22 -34 -20 -20 -21 -22 -4 -40 20 -21 34
-91 19 -91 -6 0 -16 7 -23 15 -7 8 -18 15 -25 15 -7 0 -15 9 -18 20 -4 16 -14
20 -50 20 -43 0 -115 33 -117 53 0 4 20 7 45 7 25 0 45 -4 45 -10 0 -15 36
-12 50 5 7 8 18 15 24 15 6 0 22 9 36 20 30 24 40 25 40 5z m-640 -125 c0 -5
-4 -10 -10 -10 -5 0 -10 5 -10 10 0 6 5 10 10 10 6 0 10 -4 10 -10z m130 -20
c0 -5 -4 -10 -10 -10 -5 0 -10 5 -10 10 0 6 5 10 10 10 6 0 10 -4 10 -10z
m230 -10 c0 -5 -4 -10 -9 -10 -6 0 -13 5 -16 10 -3 6 1 10 9 10 9 0 16 -4 16
-10z m-250 -40 c0 -5 -7 -10 -15 -10 -8 0 -15 5 -15 10 0 6 7 10 15 10 8 0 15
-4 15 -10z m-210 -4 c0 -3 -4 -8 -10 -11 -5 -3 -10 -1 -10 4 0 6 5 11 10 11 6
0 10 -2 10 -4z m560 -41 c0 -8 -4 -15 -10 -15 -5 0 -10 7 -10 15 0 8 5 15 10
15 6 0 10 -7 10 -15z m-205 -14 c-3 -5 2 -17 11 -25 13 -13 13 -16 1 -16 -8 0
-20 7 -27 15 -12 15 -6 35 11 35 6 0 8 -4 4 -9z m-405 -161 c0 -24 -6 -25 -26
-6 -11 11 -11 16 -1 19 22 10 27 7 27 -13z m350 -10 c0 -21 -15 -27 -25 -10
-7 12 2 30 16 30 5 0 9 -9 9 -20z m-963 4 c-3 -3 -12 -4 -19 -1 -8 3 -5 6 6 6
11 1 17 -2 13 -5z m673 -54 c0 -5 -2 -10 -4 -10 -3 0 -8 5 -11 10 -3 6 -1 10
4 10 6 0 11 -4 11 -10z m50 -55 c13 -16 6 -35 -15 -35 -18 0 -26 15 -19 34 8
20 18 20 34 1z m-238 -337 c-6 -6 -15 -8 -19 -4 -4 4 -1 11 7 16 8 5 17 7 19
4 3 -2 -1 -10 -7 -16z m-1029 -12 c3 -8 0 -22 -8 -33 -13 -17 -14 -17 -20 0
-8 20 0 47 14 47 5 0 11 -6 14 -14z m-23 -78 c0 -27 -67 -98 -92 -98 -21 0
-22 1 -5 31 42 81 97 119 97 67z m830 -33 c0 -8 -9 -15 -20 -15 -22 0 -27 15
-7 23 21 9 27 7 27 -8z m-740 -9 c0 -11 -19 -15 -25 -6 -3 5 1 10 9 10 9 0 16
-2 16 -4z m1040 -12 c0 -11 -8 -14 -32 -12 -46 4 -49 28 -4 28 26 0 36 -4 36
-16z m219 -40 c13 -11 12 -14 -3 -20 -9 -4 -22 -2 -29 5 -6 6 -19 11 -29 11
-14 0 -18 -8 -18 -40 0 -22 -4 -40 -10 -40 -5 0 -10 16 -10 36 0 27 -5 37 -20
41 -29 8 -25 21 8 26 40 6 95 -3 111 -19z m108 -74 c6 -22 7 -43 2 -46 -15 -9
-51 17 -45 33 3 8 6 23 6 34 0 35 26 20 37 -21z m-323 -7 c-4 -21 -9 -41 -11
-46 -8 -14 -20 2 -17 25 1 13 3 31 3 41 1 9 8 17 16 17 13 0 15 -7 9 -37z
m388 -20 c-3 -27 -9 -51 -15 -54 -6 -4 -7 -24 -3 -47 4 -28 2 -42 -7 -45 -9
-3 -9 -7 -1 -18 14 -17 27 -83 18 -92 -9 -9 -73 26 -74 41 0 6 5 12 10 12 6 0
10 -4 10 -10 0 -5 9 -10 20 -10 26 0 25 8 -2 37 -17 18 -22 37 -23 83 -1 37 2
58 9 57 6 -1 12 13 14 31 2 20 9 32 18 32 8 0 17 7 20 15 10 26 12 17 6 -32z
m-114 -9 c22 -15 30 -44 12 -44 -5 0 -10 -13 -10 -29 0 -16 -3 -36 -6 -45 -5
-13 -8 -13 -25 3 -12 11 -17 25 -13 34 3 10 1 17 -5 17 -6 0 -11 7 -11 15 0 8
7 15 16 15 12 0 15 6 10 25 -7 29 1 31 32 9z m-242 -45 c10 -17 -13 -36 -27
-22 -12 12 -4 33 11 33 5 0 12 -5 16 -11z m94 -9 c0 -5 -7 -7 -15 -4 -8 4 -12
10 -9 15 6 11 24 2 24 -11z m-159 0 c4 0 6 -6 4 -13 -3 -6 5 -17 17 -22 27
-12 30 -38 5 -43 -25 -5 -49 17 -42 39 4 11 2 19 -3 19 -6 0 -13 7 -16 16 -5
12 -2 15 10 10 8 -3 20 -6 25 -6z m-166 -71 c0 -36 -24 -54 -26 -20 -1 12 -2
27 -3 34 -1 6 -7 17 -15 23 -8 6 -11 16 -6 23 13 21 50 -23 50 -60z m83 52 c3
-8 -1 -12 -9 -9 -7 2 -15 10 -17 17 -3 8 1 12 9 9 7 -2 15 -10 17 -17z m257
-32 c-8 -12 -35 -12 -35 0 0 11 22 20 33 14 4 -2 5 -9 2 -14z m-270 -59 c3 -5
15 -10 26 -10 12 0 19 -5 16 -12 -2 -7 -11 -13 -20 -13 -8 0 -19 -4 -23 -8 -4
-4 15 -7 42 -7 50 0 96 -21 81 -36 -4 -5 -46 -9 -92 -9 -76 -1 -84 1 -89 19
-8 31 -7 38 4 31 6 -3 12 1 15 9 3 9 7 23 10 31 5 17 21 20 30 5z m255 -10 c0
-5 -2 -10 -4 -10 -3 0 -8 5 -11 10 -3 6 -1 10 4 10 6 0 11 -4 11 -10z m150
-62 c0 -13 -18 -9 -34 8 -18 17 -20 27 -9 38 7 7 42 -32 43 -46z m-120 27 c0
-8 -7 -15 -15 -15 -16 0 -20 12 -8 23 11 12 23 8 23 -8z m-385 -4 c3 -5 1 -12
-5 -16 -5 -3 -10 1 -10 9 0 18 6 21 15 7z m-1755 -36 c0 -14 -38 -41 -46 -33
-4 5 33 48 41 48 3 0 5 -7 5 -15z m2205 6 c3 -5 1 -12 -4 -15 -5 -3 -11 1 -15
9 -6 16 9 21 19 6z m-50 -22 c5 -6 2 -9 -8 -9 -10 0 -26 -5 -36 -11 -13 -9
-26 -9 -49 -1 -25 8 -33 8 -43 -4 -8 -10 -15 -12 -22 -5 -7 7 -5 17 7 30 15
16 27 18 79 14 34 -3 66 -9 72 -14z m-2270 -99 c-11 -5 -14 -9 -8 -9 15 -1 0
-47 -24 -74 -23 -24 -22 -223 1 -268 24 -49 19 -53 -22 -21 -76 60 -113 173
-92 282 6 29 12 56 15 58 3 3 14 -3 25 -13 20 -19 21 -18 58 18 20 20 43 37
52 36 10 0 9 -3 -5 -9z m2109 -36 c23 -9 20 -21 -9 -40 -23 -15 -27 -15 -43
-2 -9 8 -26 19 -37 23 -18 7 -17 9 10 15 41 10 60 11 79 4z m-1744 -31 c0 -4
-10 -17 -22 -30 -17 -18 -19 -26 -10 -32 9 -5 5 -11 -14 -19 -17 -9 -24 -18
-20 -28 3 -9 6 -19 6 -24 0 -4 10 -6 21 -3 18 5 20 3 11 -13 -12 -21 -50 -64
-58 -64 -2 0 -2 11 2 24 5 20 -1 27 -36 47 -41 23 -42 25 -35 64 3 22 10 44
14 48 23 23 141 48 141 30z m-230 -85 c0 -9 3 -9 12 0 22 22 30 12 24 -31 -5
-31 -2 -52 11 -77 9 -19 20 -51 23 -70 3 -19 10 -35 16 -35 18 0 67 -64 67
-89 0 -12 -15 -43 -33 -67 -26 -36 -31 -50 -26 -78 4 -25 1 -38 -12 -47 -11
-9 -13 -13 -4 -14 7 0 23 11 36 25 50 54 63 8 20 -70 -19 -34 -27 -62 -28
-103 -1 -46 -6 -64 -28 -93 -16 -20 -28 -40 -28 -46 0 -13 -45 -99 -79 -153
-16 -25 -31 -63 -33 -85 -2 -22 -8 -46 -12 -53 -4 -7 -2 -19 4 -27 10 -12 9
-15 -8 -15 -11 0 -22 -8 -25 -19 -3 -12 -15 -21 -33 -23 -26 -3 -29 -7 -26
-32 2 -17 -2 -40 -9 -53 -10 -18 -10 -31 1 -62 7 -21 10 -45 7 -52 -4 -10 -6
-9 -6 4 -1 9 -5 17 -10 17 -5 0 -13 10 -17 23 -10 34 -44 51 -44 22 0 -8 -7
-15 -16 -15 -11 0 -14 5 -9 18 4 9 16 46 26 81 11 38 30 77 48 95 22 24 29 41
30 77 0 25 10 63 20 85 11 22 23 53 27 68 l7 28 -49 -7 c-27 -4 -55 -12 -62
-18 -19 -15 -112 -57 -125 -57 -7 0 -3 7 7 15 18 14 18 15 1 21 -12 5 -23 1
-31 -11 -8 -10 -22 -20 -31 -21 -10 -1 -38 -9 -62 -18 -24 -9 -59 -16 -77 -16
-39 0 -114 -21 -114 -32 0 -5 56 -6 125 -3 69 3 125 2 125 -3 0 -4 -6 -17 -14
-28 -12 -15 -18 -17 -34 -8 -24 16 -71 6 -85 -17 -7 -11 -23 -19 -36 -19 -48
0 -14 -8 58 -14 136 -11 104 -16 -123 -20 -22 -1 -41 -7 -43 -13 -3 -8 4 -13
16 -13 12 0 21 -4 21 -9 0 -11 -69 -20 -72 -9 -2 4 -30 3 -63 -1 -33 -5 -70
-5 -83 0 -28 11 -46 3 -38 -17 3 -8 1 -14 -3 -14 -5 0 -12 7 -15 16 -8 21 -26
8 -27 -19 0 -12 -3 -16 -6 -9 -7 17 -50 15 -57 -3 -3 -8 -10 -15 -16 -15 -6 0
-8 5 -4 12 4 6 3 8 -4 4 -6 -4 -8 -21 -5 -41 4 -27 2 -36 -11 -41 -25 -10 -31
3 -16 31 11 21 11 28 1 38 -8 7 -15 8 -17 2 -3 -5 -9 -17 -15 -25 -8 -12 -12
-12 -16 -2 -4 10 -8 10 -19 1 -12 -9 -30 -9 -83 0 -68 12 -69 13 -76 47 -5 27
0 47 20 87 57 114 108 188 137 200 12 4 16 12 11 24 -5 14 -3 15 6 7 10 -9 10
-17 2 -32 -12 -23 3 -41 16 -19 4 7 45 18 93 25 47 7 121 21 165 32 83 20 211
44 327 60 37 6 141 13 230 16 190 7 224 16 254 64 12 19 32 44 43 56 35 35 28
78 -20 124 -27 25 -39 45 -35 55 4 12 0 14 -19 9 -19 -5 -25 -2 -25 10 0 9 6
13 14 10 7 -3 21 7 31 23 10 15 25 34 32 41 23 24 14 52 -33 100 -44 46 -45
48 -39 97 4 28 12 70 20 95 7 25 16 57 19 73 4 15 11 27 16 27 5 0 7 7 4 15
-4 8 -1 15 5 15 6 0 11 -5 11 -12z m-1386 -441 c-16 -19 -34 -42 -41 -53 -10
-16 -12 -17 -12 -2 -1 9 5 23 12 30 8 7 19 23 26 36 6 12 19 22 27 22 12 0 9
-9 -12 -33z m-168 -6 c53 -24 64 -57 22 -65 -25 -5 -29 -10 -25 -27 3 -12 0
-22 -9 -26 -20 -8 -72 16 -89 41 -15 21 -20 77 -8 89 12 13 68 7 109 -12z
m3764 -51 c0 -5 -4 -10 -9 -10 -6 0 -13 5 -16 10 -3 6 1 10 9 10 9 0 16 -4 16
-10z m164 1 c8 -12 -12 -18 -54 -15 -19 1 -41 3 -48 3 -7 1 -10 6 -7 11 8 12
102 13 109 1z m196 -31 c0 -5 -4 -10 -10 -10 -5 0 -10 5 -10 10 0 6 5 10 10
10 6 0 10 -4 10 -10z m-3752 -22 c7 -7 12 -18 12 -25 0 -10 -6 -10 -25 3 -17
11 -37 15 -61 11 -30 -5 -34 -4 -24 8 15 18 81 20 98 3z m3656 -33 c3 -9 0
-15 -9 -15 -16 0 -27 14 -18 24 10 10 21 7 27 -9z m-3785 -24 c13 -13 17 -27
14 -41 -5 -20 -3 -22 26 -15 22 5 39 2 56 -9 13 -9 31 -16 39 -16 23 0 26 -13
15 -55 l-11 -38 -64 6 c-76 6 -94 18 -94 63 0 37 -5 39 -45 24 l-26 -10 20
-26 c15 -19 18 -31 11 -44 -16 -30 -110 -54 -124 -31 -3 4 -22 11 -42 14 -43
7 -64 23 -64 48 0 26 13 31 91 33 77 2 107 18 76 40 -15 12 -16 14 -2 20 8 3
15 12 15 21 0 34 80 45 109 16z m3765 -23 c-9 -30 -10 -32 -30 -24 -15 6 -15
8 1 26 24 27 38 25 29 -2z m-4015 -4 c1 -1 -13 -6 -32 -9 -41 -8 -72 4 -41 16
16 6 62 2 73 -7z m446 -84 c3 -5 1 -10 -4 -10 -6 0 -11 5 -11 10 0 6 2 10 4
10 3 0 8 -4 11 -10z m3340 -30 c6 -10 -15 -50 -26 -50 -9 0 -19 42 -13 52 7
11 31 10 39 -2z m45 -55 c0 -8 -7 -15 -15 -15 -16 0 -20 12 -8 23 11 12 23 8
23 -8z m-3390 -15 c0 -11 -4 -20 -9 -20 -14 0 -23 18 -16 30 10 17 25 11 25
-10z m1456 -14 c3 -13 19 -33 35 -45 37 -28 37 -50 -1 -57 -43 -9 -45 -8 -45
39 -1 23 -4 52 -9 65 -4 13 -3 22 3 22 6 0 13 -11 17 -24z m-1736 -16 c0 -5
-7 -10 -16 -10 -8 0 -12 5 -9 10 3 6 10 10 16 10 5 0 9 -4 9 -10z m117 -95
c-29 -60 -49 -60 -29 0 10 31 20 45 33 45 17 0 16 -3 -4 -45z m-57 15 c0 -5
-11 -10 -25 -10 -14 0 -25 5 -25 10 0 6 11 10 25 10 14 0 25 -4 25 -10z m1830
1 c0 -5 -24 -27 -53 -49 -44 -35 -106 -99 -127 -132 -3 -4 -27 -19 -55 -32
-48 -22 -50 -25 -52 -66 -1 -24 -4 -46 -7 -49 -5 -6 -126 -12 -126 -6 0 1 20
23 43 47 43 43 157 207 157 225 0 5 7 14 15 21 13 11 18 10 28 -4 10 -14 18
-15 40 -7 15 6 30 18 34 27 3 8 15 20 27 24 28 12 76 12 76 1z m-1842 -92 c2
-41 -1 -59 -13 -69 -8 -7 -15 -26 -15 -43 0 -59 -21 -12 -27 60 -6 76 6 116
35 111 13 -2 18 -16 20 -59z m2354 29 c-7 -7 -12 -8 -12 -2 0 14 12 26 19 19
2 -3 -1 -11 -7 -17z m-1222 -18 c0 -5 -7 -10 -15 -10 -8 0 -15 5 -15 10 0 6 7
10 15 10 8 0 15 -4 15 -10z m-1084 -52 c-13 -37 -15 -39 -16 -15 0 25 20 71
28 63 2 -2 -3 -24 -12 -48z m2294 42 c0 -16 -23 -60 -32 -60 -12 0 -10 27 4
50 13 21 28 27 28 10z m347 -16 c-3 -3 -12 -4 -19 -1 -8 3 -5 6 6 6 11 1 17
-2 13 -5z m-1697 -14 c0 -5 -4 -10 -9 -10 -6 0 -13 5 -16 10 -3 6 1 10 9 10 9
0 16 -4 16 -10z m40 0 c0 -5 -4 -10 -10 -10 -5 0 -10 5 -10 10 0 6 5 10 10 10
6 0 10 -4 10 -10z m1530 -4 c0 -9 -30 -14 -35 -6 -4 6 3 10 14 10 12 0 21 -2
21 -4z m-1660 -16 c0 -5 -4 -10 -10 -10 -5 0 -10 5 -10 10 0 6 5 10 10 10 6 0
10 -4 10 -10z m167 4 c-3 -3 -12 -4 -19 -1 -8 3 -5 6 6 6 11 1 17 -2 13 -5z
m1403 -24 c0 -5 -9 -10 -20 -10 -11 0 -20 5 -20 10 0 6 9 10 20 10 11 0 20 -4
20 -10z m495 -50 c3 -5 -1 -10 -10 -10 -9 0 -13 5 -10 10 3 6 8 10 10 10 2 0
7 -4 10 -10z m-80 -30 c-3 -5 -11 -10 -16 -10 -6 0 -7 5 -4 10 3 6 11 10 16
10 6 0 7 -4 4 -10z m-1490 -99 c-7 -23 -25 -29 -25 -8 0 14 21 39 28 33 2 -3
1 -14 -3 -25z m-1325 -103 c-14 -5 -34 -15 -45 -20 -13 -8 -20 -7 -23 1 -2 6
-15 11 -28 11 -13 0 -24 5 -24 10 0 6 30 10 73 9 59 0 68 -2 47 -11z m-310 -8
c0 -5 -8 -10 -17 -10 -15 0 -16 2 -3 10 19 12 20 12 20 0z m1650 -10 c0 -13
-11 -13 -30 0 -12 8 -11 10 8 10 12 0 22 -4 22 -10z m-1690 -45 c-7 -8 -24
-15 -39 -15 l-26 1 30 14 c40 18 50 18 35 0z m-2390 -55 c0 -5 -7 -10 -15 -10
-8 0 -15 5 -15 10 0 6 7 10 15 10 8 0 15 -4 15 -10z m2220 -56 c0 -4 -63 -34
-73 -34 -1 0 -3 9 -3 20 0 16 7 20 38 20 21 0 38 -2 38 -6z m132 -16 c-7 -7
-12 -8 -12 -2 0 14 12 26 19 19 2 -3 -1 -11 -7 -17z m-2392 -6 c0 -4 -6 -14
-12 -20 -10 -10 -10 -15 2 -22 12 -8 10 -10 -7 -10 -19 0 -23 6 -23 30 0 23 4
30 20 30 11 0 20 -4 20 -8z m119 -1 c17 -11 5 -18 -39 -23 -27 -2 -35 1 -38
15 -3 13 3 17 30 17 18 0 39 -4 47 -9z m-172 -38 c-3 -10 -5 -4 -5 12 0 17 2
24 5 18 2 -7 2 -21 0 -30z m338 27 c-3 -5 -13 -10 -21 -10 -15 0 -19 -16 -15
-62 3 -32 -5 -35 -30 -12 -9 8 -36 15 -58 16 -39 0 -80 23 -66 36 3 3 10 1 16
-5 16 -16 78 -4 119 23 37 24 66 31 55 14z m446 -33 c-12 -12 -45 -1 -37 12 3
5 15 7 27 4 13 -4 17 -9 10 -16z m203 -17 c-5 -4 -24 -5 -43 -3 -34 6 -34 6
-10 18 25 14 70 1 53 -15z m974 -9 c70 3 144 -9 136 -22 -9 -16 -196 -11 -247
7 -47 16 -83 44 -55 44 7 0 24 -7 36 -16 25 -17 42 -11 42 14 0 13 3 12 16 -6
13 -19 24 -22 72 -21z m-1838 19 c12 -8 9 -10 -12 -10 -15 0 -30 5 -33 10 -8
13 25 13 45 0z m1115 -1 c-4 -5 1 -20 12 -31 10 -12 14 -19 8 -16 -83 37 -88
40 -74 49 20 12 62 11 54 -2z m657 -101 c-5 -5 -21 -4 -37 4 l-28 13 24 6 c27
7 55 -9 41 -23z m-1675 16 c-3 -3 -12 -4 -19 -1 -8 3 -5 6 6 6 11 1 17 -2 13
-5z m608 -4 c3 -5 1 -10 -4 -10 -6 0 -11 5 -11 10 0 6 2 10 4 10 3 0 8 -4 11
-10z m-770 -30 c-6 -18 -1 -20 47 -22 29 -1 67 -2 83 -2 48 -2 128 -28 114
-37 -17 -10 -231 1 -246 13 -14 11 -53 1 -53 -13 0 -5 -6 -9 -13 -9 -10 0 -14
14 -13 45 l0 45 44 0 c39 0 43 -2 37 -20z m509 10 c-7 -7 -34 -7 -80 -1 l-69
8 79 2 c54 1 77 -2 70 -9z m536 6 c0 -2 -7 -7 -16 -10 -8 -3 -12 -2 -9 4 6 10
25 14 25 6z m48 -33 c-2 -13 -15 -19 -46 -21 -24 -1 -42 2 -42 8 0 5 13 10 29
10 17 0 33 5 36 10 10 17 27 11 23 -7z m-308 -13 c0 -5 -7 -10 -16 -10 -8 0
-12 5 -9 10 3 6 10 10 16 10 5 0 9 -4 9 -10z"/>
<path d="M5570 5826 c0 -9 -8 -16 -17 -17 -10 0 -13 -3 -7 -5 6 -3 21 -1 33 4
20 7 21 9 7 21 -14 11 -16 11 -16 -3z"/>
<path d="M5888 5763 c7 -3 16 -2 19 1 4 3 -2 6 -13 5 -11 0 -14 -3 -6 -6z"/>
<path d="M5420 5649 c7 -11 14 -18 17 -15 8 8 -5 36 -17 36 -7 0 -7 -6 0 -21z"/>
<path d="M5455 5650 c3 -5 8 -10 11 -10 2 0 4 5 4 10 0 6 -5 10 -11 10 -5 0
-7 -4 -4 -10z"/>
<path d="M6180 5155 c0 -8 4 -15 9 -15 5 0 11 7 15 15 3 9 0 15 -9 15 -8 0
-15 -7 -15 -15z"/>
<path d="M6190 4831 c0 -5 -3 -17 -6 -25 -5 -12 -2 -15 10 -10 17 7 22 44 6
44 -5 0 -10 -4 -10 -9z"/>
<path d="M6076 4255 c-9 -26 -7 -32 5 -12 6 10 9 21 6 23 -2 3 -7 -2 -11 -11z"/>
<path d="M4417 4204 c-4 -4 -7 -23 -7 -41 0 -30 -3 -33 -20 -28 -15 5 -20 2
-20 -13 0 -11 -6 -25 -14 -31 -9 -7 -14 -30 -13 -57 0 -25 -5 -50 -11 -56 -9
-9 -12 -9 -12 2 0 7 -3 10 -7 6 -10 -9 -14 -53 -15 -134 0 -54 3 -66 21 -78
12 -9 21 -24 21 -35 0 -14 9 -21 29 -25 23 -5 30 -13 35 -39 9 -44 31 -63 57
-47 16 10 24 9 45 -5 25 -16 27 -16 39 0 6 9 15 14 18 11 3 -3 9 10 12 30 4
21 13 36 21 36 8 0 14 -4 14 -10 0 -5 7 -10 15 -10 17 0 20 17 4 22 -7 2 -8
17 -4 40 5 26 11 35 21 31 8 -3 17 2 20 11 3 9 10 16 15 16 5 0 0 -16 -11 -35
-11 -20 -20 -44 -20 -55 0 -34 26 -22 46 21 10 23 20 36 22 30 5 -15 46 -14
85 3 19 7 68 14 110 15 42 1 88 6 102 11 14 5 27 6 30 0 3 -5 19 -16 36 -24
36 -18 62 -10 34 10 -11 8 -16 21 -12 34 4 16 -1 23 -19 30 -20 8 -23 14 -18
38 8 39 -13 52 -37 24 -9 -12 -20 -22 -24 -22 -3 0 -30 15 -59 34 -29 18 -71
37 -94 41 -38 6 -45 4 -73 -24 -17 -17 -34 -31 -39 -31 -5 0 -10 -8 -13 -17
-2 -10 -3 9 -3 42 1 33 5 66 9 73 5 7 4 12 -2 12 -19 0 -12 25 10 38 16 10 18
16 9 27 -6 8 -9 19 -5 25 3 5 -1 13 -10 16 -14 6 -14 8 1 19 20 14 11 35 -17
35 -10 0 -19 7 -19 15 0 20 -10 19 -26 -2 -13 -17 -13 -17 -14 -1 0 14 -6 16
-30 12 -17 -4 -36 -1 -44 5 -18 15 -86 4 -86 -13 0 -7 -5 -17 -12 -24 -10 -10
-18 -6 -38 18 -14 17 -29 27 -33 24z m3 -93 c0 -6 -4 -13 -10 -16 -5 -3 -10 1
-10 9 0 9 5 16 10 16 6 0 10 -4 10 -9z m-40 -61 c0 -5 -4 -10 -10 -10 -5 0
-10 5 -10 10 0 6 5 10 10 10 6 0 10 -4 10 -10z"/>
<path d="M4715 3690 c-4 -6 -3 -16 3 -22 6 -6 12 -6 17 2 4 6 3 16 -3 22 -6 6
-12 6 -17 -2z"/>
<path d="M5071 3686 c-9 -11 -8 -15 5 -20 23 -9 38 8 21 23 -11 9 -17 8 -26
-3z"/>
<path d="M4692 3418 c-1 -7 -4 -29 -7 -48 l-5 -35 12 30 c6 17 15 33 21 36 5
4 6 12 3 18 -9 15 -22 14 -24 -1z"/>
<path d="M5220 3350 c0 -5 5 -10 10 -10 6 0 10 5 10 10 0 6 -4 10 -10 10 -5 0
-10 -4 -10 -10z"/>
<path d="M5825 3209 c-4 -6 -5 -13 -2 -16 7 -7 27 6 27 18 0 12 -17 12 -25 -2z"/>
<path d="M5740 3200 c0 -5 5 -10 10 -10 6 0 10 5 10 10 0 6 -4 10 -10 10 -5 0
-10 -4 -10 -10z"/>
<path d="M5754 3159 c-3 -6 -1 -16 5 -22 9 -9 14 -8 21 3 5 8 10 18 10 23 0
11 -28 8 -36 -4z"/>
<path d="M5350 2490 c0 -5 6 -13 13 -17 6 -4 17 -17 23 -28 6 -11 25 -28 44
-37 37 -19 80 -54 80 -66 0 -4 9 -13 20 -20 30 -18 27 12 -5 44 -13 13 -22 30
-20 37 2 7 -24 26 -65 47 -39 19 -70 38 -70 42 0 5 -4 8 -10 8 -5 0 -10 -4
-10 -10z"/>
<path d="M6028 2239 c-26 -15 -22 -39 5 -39 19 0 80 38 66 41 -35 7 -57 7 -71
-2z"/>
<path d="M5780 1817 c0 -17 52 -16 58 1 2 8 -7 12 -27 12 -19 0 -31 -5 -31
-13z"/>
<path d="M5592 1708 c7 -20 64 -22 71 -4 5 13 -2 16 -34 16 -28 0 -39 -4 -37
-12z"/>
<path d="M6588 5103 c7 -3 16 -2 19 1 4 3 -2 6 -13 5 -11 0 -14 -3 -6 -6z"/>
<path d="M4250 2330 c0 -11 5 -20 10 -20 6 0 10 9 10 20 0 11 -4 20 -10 20 -5
0 -10 -9 -10 -20z"/>
<path d="M3705 1720 c-3 -5 -1 -10 4 -10 6 0 11 5 11 10 0 6 -2 10 -4 10 -3 0
-8 -4 -11 -10z"/>
<path d="M3376 1596 c4 -9 -4 -16 -24 -21 -19 -4 -32 -14 -36 -28 -7 -27 9
-46 25 -30 6 6 17 9 24 7 7 -3 16 -1 20 5 3 6 17 11 31 11 21 0 24 5 24 35 0
33 -2 35 -35 35 -25 0 -33 -4 -29 -14z"/>
<path d="M3462 1568 c-7 -7 -12 -16 -12 -20 0 -10 54 -11 64 -1 4 4 15 8 23 8
9 0 18 6 20 13 6 16 -78 17 -95 0z"/>
<path d="M3101 1550 c-19 -5 -38 -15 -43 -24 -6 -10 -23 -16 -49 -16 -39 0
-114 -32 -102 -44 8 -8 56 -8 77 0 9 3 16 12 16 19 0 10 27 13 115 13 120 0
165 13 165 47 0 12 -15 15 -72 14 -40 -1 -88 -5 -107 -9z"/>
<path d="M3071 1456 c-18 -22 4 -29 44 -16 19 6 33 16 30 21 -9 14 -61 11 -74
-5z"/>
<path d="M2930 1435 c-25 -14 -24 -14 17 -15 48 0 75 8 67 21 -8 14 -56 10
-84 -6z"/>
<path d="M2764 1986 c-8 -22 3 -33 18 -18 9 9 9 15 0 24 -9 9 -13 7 -18 -6z"/>
<path d="M4416 1581 c-4 -7 -5 -15 -2 -18 9 -9 19 4 14 18 -4 11 -6 11 -12 0z"/>
<path d="M6974 3639 c-3 -6 1 -18 10 -27 15 -15 16 -14 16 11 0 27 -13 36 -26
16z"/>
<path d="M2173 1660 c-32 -13 -28 -30 6 -30 46 0 64 10 50 26 -13 16 -24 17
-56 4z"/>
<path d="M2132 1593 c-12 -2 -20 -8 -17 -12 6 -10 53 -2 61 10 5 9 -4 10 -44
2z"/>
<path d="M1675 1535 c-5 -2 -23 -6 -40 -10 -27 -6 -28 -8 -10 -15 26 -10 111
2 108 15 -2 10 -40 17 -58 10z"/>
<path d="M2080 1530 c-14 -4 -62 -5 -106 -3 -45 3 -94 3 -109 -1 -46 -12 -15
-26 56 -27 278 -2 310 1 288 27 -12 15 -86 18 -129 4z"/>
<path d="M2350 1521 c-49 -5 -53 -7 -34 -18 11 -6 31 -13 45 -15 29 -3 201 12
213 19 33 20 -92 28 -224 14z"/>
<path d="M1155 1510 c-3 -5 -1 -10 4 -10 6 0 11 5 11 10 0 6 -2 10 -4 10 -3 0
-8 -4 -11 -10z"/>
<path d="M1575 1480 c-5 -8 -1 -19 11 -28 15 -11 40 -13 117 -8 82 4 97 3 88
-8 -16 -19 10 -28 60 -20 21 4 39 3 39 -2 0 -5 29 -18 65 -29 36 -10 65 -22
65 -25 0 -3 37 -5 83 -6 45 0 92 -4 105 -8 16 -5 22 -4 20 6 -2 8 8 13 27 14
17 1 45 8 64 16 l34 16 -31 7 c-18 3 -32 12 -32 20 0 15 -55 26 -68 13 -11
-11 -173 -6 -170 6 7 22 -83 28 -161 11 -19 -4 -33 -1 -44 9 -21 21 -260 35
-272 16z"/>
<path d="M0 1463 c0 -14 8 -18 30 -17 43 2 44 2 30 19 -18 21 -60 20 -60 -2z"/>
<path d="M1051 1465 l-34 -12 48 -6 c63 -9 155 -8 180 2 18 7 16 9 -12 15 -56
13 -147 13 -182 1z"/>
<path d="M1370 1471 c0 -22 118 -28 123 -6 1 6 -26 11 -60 13 -38 2 -63 -1
-63 -7z"/>
<path d="M600 1460 c-22 -14 -6 -22 50 -28 49 -4 86 10 74 29 -7 12 -105 11
-124 -1z"/>
<path d="M195 1421 c-8 -14 58 -25 100 -17 62 12 49 26 -24 26 -38 0 -72 -4
-76 -9z"/>
<path d="M1512 1401 c-16 -10 17 -21 63 -21 29 1 29 1 11 15 -22 17 -54 19
-74 6z"/>
<path d="M1260 1358 c-13 -5 -49 -6 -80 -2 -38 4 -60 3 -64 -5 -4 -6 -18 -11
-31 -11 -13 0 -26 -4 -30 -9 -18 -31 148 -31 181 0 21 19 69 26 78 11 3 -5
-17 -19 -44 -32 -48 -22 -64 -40 -37 -40 6 0 36 7 66 15 30 8 57 13 60 13 3
-1 24 2 47 6 37 6 40 10 36 32 -3 16 -11 24 -26 25 -11 0 -46 2 -77 3 -31 1
-67 -1 -79 -6z"/>
<path d="M1820 1360 c-14 -4 -51 -8 -82 -9 -72 -1 -77 -20 -5 -23 28 -1 66 -2
83 -3 18 0 38 -6 46 -13 9 -7 29 -9 51 -5 20 3 58 0 84 -8 47 -13 47 -13 18
-21 -16 -4 -91 -10 -167 -14 -105 -5 -141 -4 -153 6 -13 10 -15 9 -15 -9 0
-24 -8 -25 -96 -10 -58 10 -66 9 -98 -11 -28 -17 -48 -21 -95 -18 -33 1 -63
-1 -68 -5 -13 -14 28 -37 66 -37 20 0 47 -3 61 -7 l25 -7 -29 -6 c-39 -7 -45
-28 -9 -35 79 -16 128 -29 150 -40 25 -13 265 -13 323 0 14 4 64 10 111 14 88
8 113 16 104 32 -4 5 6 14 20 21 22 10 25 16 20 42 -4 17 -15 38 -26 48 -25
22 -24 28 5 28 43 0 57 9 44 29 -9 14 -20 17 -54 13 -28 -3 -54 1 -76 12 -22
12 -45 15 -70 11 -30 -5 -38 -3 -38 8 0 23 -80 33 -130 17z m245 -130 c-3 -5
-10 -10 -16 -10 -5 0 -9 5 -9 10 0 6 7 10 16 10 8 0 12 -4 9 -10z"/>
<path d="M445 1349 c-4 -6 -1 -15 6 -20 21 -14 64 -6 64 11 0 18 -60 26 -70 9z"/>
<path d="M1533 1348 c2 -7 9 -13 15 -12 7 1 21 2 32 3 35 2 21 21 -16 21 -24
0 -34 -4 -31 -12z"/>
<path d="M561 1336 c-23 -13 -23 -13 -2 -19 42 -11 82 13 45 27 -19 7 -14 8
-43 -8z"/>
<path d="M2285 1340 c-4 -6 8 -10 29 -10 20 0 36 5 36 10 0 6 -13 10 -29 10
-17 0 -33 -4 -36 -10z"/>
<path d="M865 1325 c26 -12 64 -13 135 -4 24 3 -81 17 -125 17 l-40 0 30 -13z"/>
<path d="M7 1313 c-14 -13 -6 -22 23 -28 37 -8 70 2 70 21 0 10 -12 14 -43 14
-24 0 -47 -3 -50 -7z"/>
<path d="M1510 1309 c0 -5 5 -7 10 -4 6 3 10 8 10 11 0 2 -4 4 -10 4 -5 0 -10
-5 -10 -11z"/>
<path d="M333 1293 c-7 -2 -13 -11 -13 -19 0 -8 6 -14 13 -14 21 0 40 17 33
29 -8 12 -13 12 -33 4z"/>
<path d="M420 1283 c-36 -5 -58 -18 -48 -29 4 -3 66 -12 139 -19 127 -12 179
-8 179 14 0 15 -28 21 -95 21 -35 0 -67 5 -70 10 -6 10 -37 11 -105 3z"/>
<path d="M2400 1275 c0 -8 7 -15 16 -15 14 0 14 3 4 15 -7 8 -14 15 -16 15 -2
0 -4 -7 -4 -15z"/>
<path d="M238 1275 c-3 -3 -34 -7 -69 -9 -79 -5 -139 -23 -139 -40 0 -13 38
-23 189 -48 72 -11 73 -11 92 13 25 32 24 35 -13 49 -32 11 -32 12 -14 26 19
13 18 14 -10 14 -17 0 -33 -2 -36 -5z"/>
<path d="M865 1270 c-8 -13 20 -24 41 -16 20 8 9 26 -16 26 -10 0 -22 -5 -25
-10z"/>
<path d="M980 1272 c0 -13 56 -21 72 -10 9 5 7 8 -7 8 -11 0 -30 3 -42 6 -13
4 -23 2 -23 -4z"/>
<path d="M2471 1271 c-10 -6 -9 -10 3 -14 8 -3 18 -2 21 3 8 13 -9 20 -24 11z"/>
<path d="M1120 1220 c0 -5 9 -14 19 -20 23 -12 76 4 66 20 -8 13 -85 13 -85 0z"/>
<path d="M1125 1160 c-3 -5 1 -10 9 -10 9 0 16 5 16 10 0 6 -4 10 -9 10 -6 0
-13 -4 -16 -10z"/>
<path d="M1332 1083 c-6 -2 -10 -9 -6 -14 8 -14 47 -10 68 6 19 14 18 15 -15
14 -19 0 -40 -3 -47 -6z"/>
</g>
</svg>
